<svg width="239" height="26" viewBox="0 0 239 26" fill="none" xmlns="http://www.w3.org/2000/svg">
<path d="M6.976 1.438C7.384 2.186 7.84867 3.11533 8.37 4.226C8.914 5.314 9.46933 6.504 10.036 7.796C10.6253 9.06533 11.2033 10.3687 11.77 11.706C12.3367 13.0433 12.8693 14.3013 13.368 15.48C13.8667 14.3013 14.3993 13.0433 14.966 11.706C15.5327 10.3687 16.0993 9.06533 16.666 7.796C17.2553 6.504 17.8107 5.314 18.332 4.226C18.876 3.11533 19.352 2.186 19.76 1.438H24.588C24.8147 3.002 25.0187 4.75867 25.2 6.708C25.404 8.63467 25.574 10.652 25.71 12.76C25.8687 14.8453 26.0047 16.942 26.118 19.05C26.254 21.158 26.3673 23.1413 26.458 25H21.29C21.222 22.7107 21.1313 20.2173 21.018 17.52C20.9047 14.8227 20.7347 12.1027 20.508 9.36C20.1 10.312 19.6467 11.366 19.148 12.522C18.6493 13.678 18.1507 14.834 17.652 15.99C17.176 17.146 16.7113 18.2567 16.258 19.322C15.8047 20.3647 15.4193 21.26 15.102 22.008H11.396C11.0787 21.26 10.6933 20.3647 10.24 19.322C9.78667 18.2567 9.31067 17.146 8.812 15.99C8.336 14.834 7.84867 13.678 7.35 12.522C6.85133 11.366 6.398 10.312 5.99 9.36C5.76333 12.1027 5.59333 14.8227 5.48 17.52C5.36667 20.2173 5.276 22.7107 5.208 25H0.0400001C0.130667 23.1413 0.232667 21.158 0.346 19.05C0.482 16.942 0.618 14.8453 0.754 12.76C0.912667 10.652 1.08267 8.63467 1.264 6.708C1.468 4.75867 1.68333 3.002 1.91 1.438H6.976ZM47.0097 25C46.7603 24.184 46.477 23.3453 46.1597 22.484C45.865 21.6227 45.5703 20.7613 45.2757 19.9H36.0957C35.801 20.7613 35.495 21.6227 35.1777 22.484C34.883 23.3453 34.611 24.184 34.3617 25H28.8537C29.7377 22.4613 30.5763 20.1153 31.3697 17.962C32.163 15.8087 32.9337 13.78 33.6817 11.876C34.4523 9.972 35.2003 8.17 35.9257 6.47C36.6737 4.74733 37.4443 3.07 38.2377 1.438H43.3037C44.0743 3.07 44.8337 4.74733 45.5817 6.47C46.3297 8.17 47.0777 9.972 47.8257 11.876C48.5963 13.78 49.3783 15.8087 50.1717 17.962C50.965 20.1153 51.8037 22.4613 52.6877 25H47.0097ZM40.6517 6.776C40.5383 7.116 40.3683 7.58067 40.1417 8.17C39.915 8.75933 39.6543 9.43933 39.3597 10.21C39.065 10.9807 38.7363 11.8307 38.3737 12.76C38.0337 13.6893 37.6823 14.664 37.3197 15.684H44.0177C43.655 14.664 43.3037 13.6893 42.9637 12.76C42.6237 11.8307 42.295 10.9807 41.9777 10.21C41.683 9.43933 41.4223 8.75933 41.1957 8.17C40.969 7.58067 40.7877 7.116 40.6517 6.776ZM61.0416 20.682C61.2909 20.7047 61.5742 20.7273 61.8916 20.75C62.2316 20.75 62.6282 20.75 63.0816 20.75C65.7336 20.75 67.6942 20.0813 68.9636 18.744C70.2556 17.4067 70.9016 15.5593 70.9016 13.202C70.9016 10.7313 70.2896 8.86133 69.0656 7.592C67.8416 6.32267 65.9036 5.688 63.2516 5.688C62.8889 5.688 62.5149 5.69933 62.1296 5.722C61.7442 5.722 61.3816 5.74467 61.0416 5.79V20.682ZM76.3756 13.202C76.3756 15.242 76.0582 17.0213 75.4236 18.54C74.7889 20.0587 73.8822 21.3167 72.7036 22.314C71.5476 23.3113 70.1309 24.0593 68.4536 24.558C66.7762 25.0567 64.8949 25.306 62.8096 25.306C61.8576 25.306 60.7469 25.2607 59.4776 25.17C58.2082 25.102 56.9616 24.9433 55.7376 24.694V1.744C56.9616 1.51733 58.2309 1.37 59.5456 1.302C60.8829 1.21133 62.0276 1.166 62.9796 1.166C64.9969 1.166 66.8216 1.39267 68.4536 1.846C70.1082 2.29933 71.5249 3.01333 72.7036 3.988C73.8822 4.96267 74.7889 6.20933 75.4236 7.728C76.0582 9.24667 76.3756 11.0713 76.3756 13.202ZM88.9739 25V1.438H104.75V5.892H94.2779V10.822H103.594V15.276H94.2779V25H88.9739ZM124.239 20.444V25H108.497V1.438H113.801V20.444H124.239ZM144.494 25C144.245 24.184 143.961 23.3453 143.644 22.484C143.349 21.6227 143.055 20.7613 142.76 19.9H133.58C133.285 20.7613 132.979 21.6227 132.662 22.484C132.367 23.3453 132.095 24.184 131.846 25H126.338C127.222 22.4613 128.061 20.1153 128.854 17.962C129.647 15.8087 130.418 13.78 131.166 11.876C131.937 9.972 132.685 8.17 133.41 6.47C134.158 4.74733 134.929 3.07 135.722 1.438H140.788C141.559 3.07 142.318 4.74733 143.066 6.47C143.814 8.17 144.562 9.972 145.31 11.876C146.081 13.78 146.863 15.8087 147.656 17.962C148.449 20.1153 149.288 22.4613 150.172 25H144.494ZM138.136 6.776C138.023 7.116 137.853 7.58067 137.626 8.17C137.399 8.75933 137.139 9.43933 136.844 10.21C136.549 10.9807 136.221 11.8307 135.858 12.76C135.518 13.6893 135.167 14.664 134.804 15.684H141.502C141.139 14.664 140.788 13.6893 140.448 12.76C140.108 11.8307 139.779 10.9807 139.462 10.21C139.167 9.43933 138.907 8.75933 138.68 8.17C138.453 7.58067 138.272 7.116 138.136 6.776ZM160.279 20.954C161.027 20.954 161.639 20.8973 162.115 20.784C162.613 20.648 163.01 20.478 163.305 20.274C163.599 20.0473 163.803 19.7867 163.917 19.492C164.03 19.1973 164.087 18.8687 164.087 18.506C164.087 17.7353 163.724 17.1007 162.999 16.602C162.273 16.0807 161.027 15.5253 159.259 14.936C158.488 14.664 157.717 14.358 156.947 14.018C156.176 13.6553 155.485 13.2133 154.873 12.692C154.261 12.148 153.762 11.502 153.377 10.754C152.991 9.98333 152.799 9.054 152.799 7.966C152.799 6.878 153.003 5.90333 153.411 5.042C153.819 4.158 154.397 3.41 155.145 2.798C155.893 2.186 156.799 1.72133 157.865 1.404C158.93 1.064 160.131 0.893998 161.469 0.893998C163.055 0.893998 164.427 1.064 165.583 1.404C166.739 1.744 167.691 2.118 168.439 2.526L166.909 6.708C166.251 6.368 165.515 6.07333 164.699 5.824C163.905 5.552 162.942 5.416 161.809 5.416C160.539 5.416 159.621 5.59733 159.055 5.96C158.511 6.3 158.239 6.83267 158.239 7.558C158.239 7.98867 158.341 8.35133 158.545 8.646C158.749 8.94067 159.032 9.21267 159.395 9.462C159.78 9.68867 160.211 9.904 160.687 10.108C161.185 10.2893 161.729 10.482 162.319 10.686C163.543 11.1393 164.608 11.5927 165.515 12.046C166.421 12.4767 167.169 12.9867 167.759 13.576C168.371 14.1653 168.824 14.8567 169.119 15.65C169.413 16.4433 169.561 17.4067 169.561 18.54C169.561 20.7387 168.79 22.45 167.249 23.674C165.707 24.8753 163.384 25.476 160.279 25.476C159.236 25.476 158.295 25.408 157.457 25.272C156.618 25.1587 155.87 25.0113 155.213 24.83C154.578 24.6487 154.023 24.456 153.547 24.252C153.093 24.048 152.708 23.8553 152.391 23.674L153.887 19.458C154.589 19.8433 155.451 20.1947 156.471 20.512C157.513 20.8067 158.783 20.954 160.279 20.954ZM187.854 1.438H193.158V25H187.854V15.004H178.946V25H173.642V1.438H178.946V10.448H187.854V1.438ZM198.611 25V1.438H214.523V5.892H203.915V10.516H213.333V14.868H203.915V20.546H215.305V25H198.611ZM226.132 1.166C229.668 1.166 232.376 1.80067 234.258 3.07C236.139 4.31667 237.08 6.266 237.08 8.918C237.08 10.5727 236.694 11.9213 235.924 12.964C235.176 13.984 234.088 14.7887 232.66 15.378C233.136 15.9673 233.634 16.6473 234.156 17.418C234.677 18.166 235.187 18.9593 235.686 19.798C236.207 20.614 236.706 21.4753 237.182 22.382C237.658 23.266 238.1 24.1387 238.508 25H232.558C232.127 24.2293 231.685 23.4473 231.232 22.654C230.801 21.8607 230.348 21.09 229.872 20.342C229.418 19.594 228.965 18.8913 228.512 18.234C228.058 17.554 227.605 16.942 227.152 16.398H224.534V25H219.23V1.778C220.386 1.55133 221.576 1.39267 222.8 1.302C224.046 1.21133 225.157 1.166 226.132 1.166ZM226.438 5.688C226.052 5.688 225.701 5.69933 225.384 5.722C225.089 5.74467 224.806 5.76733 224.534 5.79V12.182H226.03C228.024 12.182 229.452 11.9327 230.314 11.434C231.175 10.9353 231.606 10.0853 231.606 8.884C231.606 7.728 231.164 6.912 230.28 6.436C229.418 5.93733 228.138 5.688 226.438 5.688Z" fill="white"/>
</svg>
